
<svg width="150px" height="42px" viewBox="0 0 150 42" version="1.1" xmlns="http://www.w3.org/2000/svg" xmlns:xlink="http://www.w3.org/1999/xlink">
    <g id="Page-1" stroke="none" stroke-width="1" fill="none" fill-rule="evenodd">
        <g id="GNG-LGOG">
            <path d="M43,35.8392463 C43,39.2418199 40.1746076,42 36.6886018,42 L6.30688122,42 C2.82313394,42 0,39.2418199 0,35.8392463 L0,6.16213235 C0,2.75955882 2.82313394,0 6.30688122,0 L36.6886018,0 C40.1746076,0 43,2.75955882 43,6.16213235 L43,35.8392463 Z" id="Fill-1" fill="#E63E25"></path>
            <path d="M35.887311,42.0178786 C35.9516238,41.9711664 36.024436,41.9829127 36.0952651,41.9848249 C36.118497,41.9976639 36.118497,42.0094103 36.0952651,42.0178786 C36.0278358,42.0178786 35.95814,42.0178786 35.887311,42.0178786" id="Fill-2" fill="#E63E25"></path>
            <path d="M37.0786467,41.9854464 C37.0786467,41.9982854 37.0786467,42.0100317 37.0786467,42.0185 C37.0321829,42.0185 36.9845858,42.0185 36.9392552,42.0185 C36.91489,42.0037488 36.91489,41.9982854 36.9423717,41.9920025 C36.9888355,41.9835342 37.0344494,41.9769781 37.0786467,41.9854464" id="Fill-3" fill="#E63E25"></path>
            <path d="M42.9865223,35.0459269 C42.9788727,35.0098683 42.9777395,34.9680732 43.017687,34.9434878 C43.017687,34.9735366 43.017687,35.0098683 43.017687,35.0396439 C43.0097542,35.0609513 42.9987049,35.0609513 42.9865223,35.0459269" id="Fill-4" fill="#E63E25"></path>
            <path d="M42.9844176,34.9704976 C42.9966002,34.9704976 43.0076495,34.9704976 43.0155824,34.9642146 C43.0155824,34.9888 43.0155824,35.0090146 43.0155824,35.0336 L43,35.0357854 L42.9844176,35.0336 C42.9844176,35.0090146 42.9844176,34.9909854 42.9844176,34.9704976" id="Fill-5" fill="#E63E25"></path>
            <path d="M36.0362999,41.9900293 C36.0343167,41.9963122 36.0343167,42.0080585 36.0331834,42.0165268 C36.007685,42.0165268 35.9875695,42.0165268 35.9643376,42.0165268 C35.9634876,42.0080585 35.9634876,41.9963122 35.9643376,41.9834732 C35.9875695,41.9834732 36.0110847,41.9867512 36.0362999,41.9900293" id="Fill-6" fill="#E63E25"></path>
            <path d="M8.00033994,21.4700614 C8.00033994,19.4310441 7.99845119,17.3917524 8.00357781,15.3516377 C8.00357781,14.6164613 8.09207954,13.8952751 8.29444629,13.1891766 C8.51785919,12.4112063 8.86377143,11.6996213 9.36537116,11.0664917 C10.1000974,10.1436807 11.042317,9.54374378 12.158572,9.22745332 C12.8099231,9.04420784 13.4717973,8.97891978 14.1474325,9.0058031 C14.9590581,9.03268642 15.7388446,9.20934822 16.4746502,9.57035278 C17.4738023,10.0665969 18.2484622,10.8080827 18.8145495,11.7747848 C19.1990463,12.4293113 19.4510604,13.1408963 19.6018911,13.8867712 C19.6893135,14.3248596 19.7335644,14.7569129 19.7556898,15.1960985 C19.7618957,15.2915617 19.7618957,15.3848304 19.7368022,15.4811166 C19.6893135,15.6580527 19.5681633,15.7661346 19.387922,15.784514 C19.3371954,15.7878058 19.2886273,15.7878058 19.2403291,15.7878058 C18.5592976,15.7878058 17.8806944,15.7878058 17.2018214,15.7878058 C17.1691729,15.7878058 17.1365244,15.7878058 17.100638,15.7878058 C16.8855896,15.7878058 16.7433932,15.6525663 16.6821435,15.4512157 C16.6567802,15.3645307 16.6505743,15.279766 16.6462572,15.1897892 C16.6211637,14.7547183 16.5504702,14.3281514 16.4177176,13.9103627 C16.3089792,13.5855683 16.1689415,13.2791534 15.9738599,13.0004447 C15.5281134,12.3695097 14.924251,12.0296277 14.1620029,11.9610478 C13.7880291,11.9278552 13.4189122,11.9580303 13.0565408,12.0628204 C12.4788511,12.2279608 12.0247401,12.5675684 11.6863829,13.0660071 C11.455415,13.4089065 11.3121393,13.7839014 11.2225583,14.1802932 C11.148627,14.5135914 11.1119312,14.8501816 11.1119312,15.193081 C11.1108519,15.2561745 11.1108519,15.3129587 11.1108519,15.3763265 C11.1108519,19.4609449 11.1108519,23.5425458 11.1108519,27.6274385 C11.1108519,27.9519586 11.1265016,28.2734611 11.1855927,28.5905745 C11.2635713,28.9968418 11.3984825,29.3869242 11.6124516,29.7383276 C11.9761721,30.3297606 12.4842476,30.7327361 13.1472011,30.9244854 C13.7235416,31.0959352 14.3023105,31.1055364 14.8789208,30.9373785 C15.8030624,30.6663507 16.4177176,30.0480344 16.7423139,29.1381164 C16.8699399,28.7653161 16.9225552,28.3903212 16.9225552,28.0024334 C16.9225552,26.4763936 16.9225552,24.9484336 16.9225552,23.4256857 C16.9225552,23.392493 16.9225552,23.3560085 16.9225552,23.3228158 C16.9182381,23.2962068 16.9044771,23.2693235 16.8739872,23.2693235 C16.8235304,23.2660317 16.7717246,23.2660317 16.7234264,23.2660317 C16.0235072,23.2660317 15.3203502,23.2660317 14.6217802,23.2660317 C14.544611,23.2660317 14.4687909,23.2693235 14.3940501,23.2424402 C14.2170466,23.1845588 14.117752,23.0613893 14.107229,22.8781438 C14.1042609,22.8364472 14.1042609,22.7999627 14.1042609,22.7582661 C14.1042609,22.1816464 14.1042609,21.6020091 14.1042609,21.0223719 C14.1042609,20.9740916 14.1042609,20.9236168 14.107229,20.8723191 C14.1304337,20.6920911 14.2359342,20.5656298 14.4067318,20.5176239 C14.4825518,20.4940324 14.5594512,20.4940324 14.6363506,20.4940324 C15.7304801,20.4940324 16.8264985,20.4940324 17.9238659,20.4940324 C18.1588812,20.4940324 18.396055,20.4970499 18.629991,20.4970499 C18.7732667,20.4940324 18.9135743,20.514332 19.0525328,20.5442329 C19.5638461,20.6772779 19.8579525,21.0157882 19.9612944,21.5334293 C19.9874672,21.6533069 19.996911,21.778671 19.996911,21.8966284 C19.996911,23.9241243 20.0055453,25.9450366 19.9939429,27.9659489 C19.9874672,28.9850461 19.7618957,29.9632697 19.2918652,30.874285 C18.5342041,32.342169 17.358858,33.2981727 15.799015,33.7565607 C15.1919148,33.9378859 14.5753707,34.003174 13.9480338,34 C13.2303064,33.9976876 12.5295777,33.8863138 11.851784,33.6462842 C10.3931244,33.1116354 9.33488123,32.1235363 8.66032538,30.7091446 C8.37350424,30.1111279 8.19110434,29.4736092 8.09423812,28.8168882 C8.02786182,28.3689243 7.99953047,27.9209605 8.00033994,27.4677845 C8.00033994,25.4671719 8.00033994,23.4695768 8.00033994,21.4700614" id="Fill-7" fill="#FFFFFF"></path>
            <path d="M30.8891488,21.4912495 C30.8891488,19.4310539 30.8891488,17.3672925 30.8891488,15.3070969 C30.8891488,14.941742 30.8616215,14.5837929 30.7825481,14.2258439 C30.7015855,13.8390943 30.5677274,13.4693508 30.3537164,13.1330707 C29.9540313,12.5030255 29.3889126,12.1269733 28.665917,11.998331 C28.2567862,11.9234498 27.8476555,11.9286613 27.4439222,12.02192 C26.8399415,12.1634539 26.3644215,12.5030255 26.0114247,13.0162229 C25.7572023,13.3793835 25.5990554,13.7845105 25.4916451,14.2173409 C25.4179692,14.5174146 25.3704712,14.8270886 25.3523895,15.1367625 C25.3461824,15.2138381 25.3378163,15.2920109 25.3281008,15.3701837 C25.3197346,15.4453392 25.2965254,15.5084261 25.2576633,15.5780958 C25.184797,15.6979608 25.0806252,15.7698249 24.9381311,15.7849108 C24.8790284,15.7882023 24.8169572,15.7882023 24.7578545,15.7882023 C24.1012482,15.7882023 23.4432925,15.7882023 22.7845272,15.7882023 C22.7297425,15.7882023 22.674688,15.7882023 22.6253008,15.7849108 C22.4312605,15.7665334 22.3090071,15.6617544 22.2582705,15.4730426 C22.2361408,15.4033728 22.2361408,15.3284915 22.2361408,15.2621132 C22.2469358,14.9738339 22.2690656,14.6888462 22.3090071,14.4068756 C22.3859215,13.8327856 22.5187001,13.2713131 22.726504,12.7334295 C23.063848,11.8504885 23.5582593,11.0791837 24.2486,10.4425556 C24.9899471,9.7601209 25.859485,9.33359924 26.8337344,9.12678423 C27.466052,8.99731914 28.1051164,8.97043867 28.7468796,9.03050828 C29.5492185,9.10868106 30.3094569,9.31659323 31.0157202,9.70965146 C32.0466434,10.2744155 32.8047228,11.1090814 33.3180254,12.1815571 C33.5962667,12.7581156 33.7797819,13.3708805 33.8799055,14.0042172 C33.9325312,14.3341886 33.9673451,14.6652572 33.9800292,14.9985201 C34,15.2802164 34,15.5534097 34,15.833186 C34,19.7544424 34,23.6770702 33.9970314,27.5964066 C33.9948724,28.4612444 33.8683009,29.3055104 33.5773755,30.1187816 C33.2915776,30.9243727 32.8721916,31.6391737 32.2860227,32.2541329 C31.5163387,33.0534153 30.5876982,33.5699042 29.5111661,33.82472 C28.8850557,33.9747569 28.2462611,34.0263235 27.6053075,33.9876486 C26.6491398,33.9363563 25.742629,33.6952549 24.9108737,33.2119552 C23.7110087,32.5155317 22.8878894,31.4913311 22.4048128,30.1818684 C22.2024064,29.6321904 22.0823119,29.0589233 22.0275273,28.4793476 C22.004318,28.2275489 22,27.9779446 22,27.7228545 C22,25.8094042 22,23.8934854 22,21.9778408 C22,21.8299983 22.004318,21.6884644 22.0307658,21.541719 C22.134128,20.9835379 22.5092545,20.6085828 23.063848,20.5205356 C23.1828629,20.5057239 23.3032273,20.4969466 23.4211627,20.4969466 C24.7346452,20.4969466 26.0419206,20.4969466 27.3521646,20.4969466 C27.4134263,20.4969466 27.474688,20.4969466 27.5346002,20.5057239 C27.7529293,20.5452218 27.8773417,20.6919671 27.8889464,20.9171596 C27.8951535,20.9566574 27.8951535,20.9953324 27.8951535,21.0348302 C27.8951535,21.6080973 27.8951535,22.1846558 27.8951535,22.7557286 C27.8951535,22.8040037 27.8951535,22.8456958 27.8889464,22.887388 C27.8697852,23.0610138 27.7812662,23.1789587 27.6231193,23.2390284 C27.5367592,23.2656345 27.4482402,23.2656345 27.3629596,23.2656345 C26.6661419,23.2656345 25.9682447,23.2656345 25.2733161,23.2656345 C25.2312156,23.2656345 25.184797,23.2656345 25.1405375,23.2656345 C25.0784662,23.268926 25.0698302,23.2807205 25.0657821,23.3492931 C25.0657821,23.3769965 25.0657821,23.4038769 25.0657821,23.4340489 C25.0657821,24.9596524 25.0657821,26.4855302 25.0698302,28.0111338 C25.0698302,28.4878506 25.1553806,28.9541444 25.3523895,29.3888947 C25.7477567,30.2600412 26.4076015,30.7946333 27.3300349,30.9896539 C27.8287642,31.0947071 28.3231755,31.0798954 28.8113797,30.9394587 C29.5883504,30.7230435 30.1521196,30.2301436 30.5159114,29.5035481 C30.700506,29.1274959 30.7995502,28.7344377 30.8543349,28.323002 C30.8829416,28.101101 30.8902283,27.8783772 30.8902283,27.6531847 C30.8902283,25.6025892 30.8902283,23.5454108 30.8902283,21.4912495" id="Fill-8" fill="#FFFFFF"></path>
            <path d="M52,26.3634398 L52,14.8296788 C52,11.3399297 54.2402119,9 57.4320282,9 C60.5612992,9 62.7032662,11.27602 62.8000831,14.352023 C62.8000831,14.5073514 62.7032662,14.6071062 62.5390487,14.6071062 L61.5474608,14.6071062 C61.3801018,14.6071062 61.285284,14.5073514 61.285284,14.352023 C61.1536245,12.0390465 59.6385398,10.4032354 57.4320282,10.4032354 C55.1258438,10.4032354 53.5439298,12.1032341 53.5439298,14.8569099 L53.5439298,26.3634398 C53.5439298,28.8914864 55.2263735,30.5923188 57.5011424,30.5923188 C59.8047565,30.5923188 61.4814882,28.8914864 61.4814882,26.5543354 L61.4814882,21.3009556 L57.9640928,21.3009556 C57.7967338,21.3009556 57.6962042,21.2064804 57.6962042,21.044761 L57.6962042,20.1808682 C57.6962042,20.0169258 57.7967338,19.9224506 57.9640928,19.9224506 L62.2400301,19.9224506 C62.7343961,19.9224506 63,20.1808682 63,20.6551895 L63,26.5543354 C63,29.6575695 60.6604009,32 57.5011424,32 C54.3381711,32 52,29.6575695 52,26.3634398" id="Fill-9" fill="#E63E25"></path>
            <path d="M67,31.7456902 L67,20.9314577 C67,18.0049648 69.2764203,16 72.3425459,16 L73.6893208,16 C73.8609569,16 74,16.1323955 74,16.2843746 L74,17.1140532 C74,17.2745828 73.8609569,17.3650531 73.6893208,17.3650531 L72.3425459,17.3650531 C70.0999146,17.3650531 68.5521999,18.7389326 68.5521999,20.9314577 L68.5521999,31.7456902 C68.5521999,31.8996001 68.4119607,32 68.2379325,32 L67.3106792,32 C67.1387441,32 67,31.8996001 67,31.7456902" id="Fill-10" fill="#E63E25"></path>
            <path d="M74,27.2022809 C74,24.6959497 75.9659285,22.8132495 79.1513481,22.8132495 L82.4969672,22.8132495 L82.4969672,20.7682013 C82.4969672,18.7000755 81.224947,17.3363522 79.1162318,17.3363522 C77.1085121,17.3363522 75.9023711,18.5701971 75.7685811,20.3364361 C75.7357866,20.5207883 75.6382738,20.6152453 75.4682068,20.6152453 L74.5647619,20.6152453 C74.3958557,20.6152453 74.259744,20.4883187 74.259744,20.3364361 C74.4332937,17.8268847 76.2413443,16 79.1162318,16 C82.0909539,16 84,17.9559581 84,20.7682013 L84,27.2022809 C84,30.019891 82.1307136,32 79.1162318,32 C75.9659285,32 74,30.0783899 74,27.2022809 Z M82.4969672,27.2022809 L82.4969672,24.1088134 L79.1513481,24.1088134 C76.8081377,24.1088134 75.5021621,25.4129644 75.5021621,27.2022809 C75.5021621,29.3353459 76.8081377,30.6990692 79.1162318,30.6990692 C81.2600633,30.6990692 82.4969672,29.3028763 82.4969672,27.2022809 L82.4969672,27.2022809 Z" id="Fill-11" fill="#E63E25"></path>
            <path d="M97,20.7351667 L97,27.1945144 C97,29.9225123 94.9301239,32 92.0169757,32 C89.0742288,32 87,29.9225123 87,27.1945144 L87,10.24707 C87,10.0915074 87.1314529,10 87.3038217,10 L88.2004875,10 C88.3725661,10 88.5075012,10.0915074 88.5075012,10.24707 L88.5075012,17.7555235 C89.308987,16.6423626 90.5808595,15.9232218 92.0169757,15.9232218 C94.9301239,15.9232218 97,18.0058232 97,20.7351667 Z M95.5319637,20.7351667 C95.5319637,18.7228108 94.0900438,17.2635365 92.0169757,17.2635365 C89.9085053,17.2635365 88.5075012,18.7228108 88.5075012,20.7351667 L88.5075012,27.1945144 C88.5075012,29.2066013 89.9085053,30.6658756 92.0169757,30.6658756 C94.0900438,30.6658756 95.5319637,29.2066013 95.5319637,27.1945144 L95.5319637,20.7351667 Z" id="Fill-12" fill="#E63E25"></path>
            <path d="M110,20.7351667 L110,27.1945144 C110,29.9225123 107.929245,32 105.015804,32 C102.075395,32 100,29.9225123 100,27.1945144 L100,10.24707 C100,10.0915074 100.134841,10 100.30709,10 L101.206612,10 C101.375381,10 101.506742,10.0915074 101.506742,10.24707 L101.506742,17.7555235 C102.3097,16.6423626 103.579527,15.9232218 105.015804,15.9232218 C107.929245,15.9232218 110,18.0058232 110,20.7351667 Z M108.530666,20.7351667 C108.530666,18.7228108 107.093229,17.2635365 105.015804,17.2635365 C102.910251,17.2635365 101.506742,18.7228108 101.506742,20.7351667 L101.506742,27.1945144 C101.506742,29.2066013 102.910251,30.6658756 105.015804,30.6658756 C107.093229,30.6658756 108.530666,29.2066013 108.530666,27.1945144 L108.530666,20.7351667 Z" id="Fill-13" fill="#E63E25"></path>
            <path d="M114,31.7487182 L114,20.9738532 C114,18.1089138 115.73927,16 118.503634,16 C121.267191,16 123,18.1089138 123,20.9738532 L123,31.7487182 C123,31.9007955 122.876978,32 122.72246,32 L121.885532,32 C121.727784,32 121.604762,31.9007955 121.604762,31.7487182 L121.604762,20.9738532 C121.604762,18.8019827 120.519636,17.3275419 118.503634,17.3275419 C116.48171,17.3275419 115.395238,18.8019827 115.395238,20.9738532 L115.395238,31.7487182 C115.395238,31.9007955 115.271139,32 115.122005,32 L114.281847,32 C114.12706,32 114,31.9007955 114,31.7487182" id="Fill-14" fill="#E63E25"></path>
            <path d="M127,26.3634398 L127,14.8296788 C127,11.3399297 129.238837,9 132.439174,9 C135.565836,9 137.704439,11.27602 137.803531,14.352023 C137.803531,14.5073514 137.704439,14.6071062 137.53824,14.6071062 L136.552181,14.6071062 C136.38798,14.6071062 136.28432,14.5073514 136.28432,14.352023 C136.156101,12.0390465 134.6446,10.4032354 132.439174,10.4032354 C130.127804,10.4032354 128.552908,12.1032341 128.552908,14.8569099 L128.552908,26.3634398 C128.552908,28.8914864 130.229465,30.5923188 132.501713,30.5923188 C134.805088,30.5923188 136.486215,28.8914864 136.486215,26.5543354 L136.486215,21.3009556 L132.95919,21.3009556 C132.799559,21.3009556 132.700182,21.2064804 132.700182,21.044761 L132.700182,20.1808682 C132.700182,20.0169258 132.799559,19.9224506 132.95919,19.9224506 L137.242679,19.9224506 C137.735566,19.9224506 138,20.1808682 138,20.6551895 L138,26.5543354 C138,29.6575695 135.664071,32 132.501713,32 C129.340498,32 127,29.6575695 127,26.3634398" id="Fill-15" fill="#E63E25"></path>
            <path d="M140,27.2174641 L140,20.7889644 C140,18.0726554 141.964028,16 145.002603,16 C148.067203,16 150,18.0726554 150,20.7889644 L150,27.2174641 C150,29.9324338 148.067203,32 145.002603,32 C141.964028,32 140,29.9324338 140,27.2174641 Z M148.505581,27.2174641 L148.505581,20.7889644 C148.505581,18.7862189 147.200856,17.3047176 145.002603,17.3047176 C142.838471,17.3047176 141.50107,18.7862189 141.50107,20.7889644 L141.50107,27.2174641 C141.50107,29.2199417 142.838471,30.7035859 145.002603,30.7035859 C147.200856,30.7035859 148.505581,29.2199417 148.505581,27.2174641 L148.505581,27.2174641 Z" id="Fill-16" fill="#E63E25"></path>
        </g>
    </g>
</svg>